<svg width="23" height="27" viewBox="0 0 23 27" fill="none" xmlns="http://www.w3.org/2000/svg">
<g clip-path="url(#clip0_192_244)">
<g filter="url(#filter0_d_192_244)">
<path d="M19.182 2.25C18.1154 2.25 17.25 5.27175 17.25 9H19.182C20.1135 9 20.5783 9 20.8668 8.62312C21.1543 8.24512 21.1044 7.74788 21.0047 6.7545C20.7383 4.12875 20.0234 2.25 19.182 2.25Z" fill="#018ECA" stroke="white" stroke-width="1.5"/>
<path d="M17.2501 9.06075V20.9767C17.2501 22.6766 17.2501 23.5271 16.8073 23.8624C16.0838 24.4091 14.9654 23.2616 14.4029 22.8454C13.9381 22.5011 13.7062 22.3301 13.4484 22.32C13.1695 22.3088 12.9328 22.4741 12.4306 22.8454L10.5992 24.201C10.1047 24.5666 9.85846 24.75 9.58341 24.75C9.30837 24.75 9.06112 24.5666 8.56758 24.201L6.73716 22.8454C6.27141 22.5011 6.0395 22.3301 5.78171 22.32C5.50283 22.3088 5.26612 22.4741 4.76396 22.8454C4.20141 23.2616 3.08304 24.4091 2.35854 23.8624C1.91675 23.5271 1.91675 22.6777 1.91675 20.9767V9.06075C1.91675 5.85 1.91675 4.24575 2.75912 3.24788C3.60054 2.25 4.95658 2.25 7.66675 2.25H19.1667M5.75008 6.75H13.4167ZM7.66675 11.25H5.75008Z" fill="#018ECA"/>
<path d="M17.2501 9.06075V20.9767C17.2501 22.6766 17.2501 23.5271 16.8073 23.8624C16.0838 24.4091 14.9654 23.2616 14.4029 22.8454C13.9381 22.5011 13.7062 22.3301 13.4484 22.32C13.1695 22.3088 12.9328 22.4741 12.4306 22.8454L10.5992 24.201C10.1047 24.5666 9.85846 24.75 9.58341 24.75C9.30837 24.75 9.06112 24.5666 8.56758 24.201L6.73716 22.8454C6.27141 22.5011 6.0395 22.3301 5.78171 22.32C5.50283 22.3088 5.26612 22.4741 4.76396 22.8454C4.20141 23.2616 3.08304 24.4091 2.35854 23.8624C1.91675 23.5271 1.91675 22.6777 1.91675 20.9767V9.06075C1.91675 5.85 1.91675 4.24575 2.75912 3.24788C3.60054 2.25 4.95658 2.25 7.66675 2.25H19.1667M5.75008 6.75H13.4167M7.66675 11.25H5.75008" stroke="white" stroke-width="1.5" stroke-linecap="round" stroke-linejoin="round"/>
<path d="M11.9792 12.2344C11.1857 12.2344 10.5417 12.8959 10.5417 13.7115C10.5417 14.526 11.1857 15.1875 11.9792 15.1875C12.7727 15.1875 13.4167 15.849 13.4167 16.6646C13.4167 17.4791 12.7727 18.1406 11.9792 18.1406M11.9792 12.2344C12.605 12.2344 13.1379 12.645 13.3353 13.2188ZM11.9792 12.2344V11.25ZM11.9792 18.1406C11.3535 18.1406 10.8206 17.73 10.6232 17.1562ZM11.9792 18.1406V19.125Z" fill="#018ECA"/>
<path d="M11.9792 12.2344C11.1857 12.2344 10.5417 12.8959 10.5417 13.7115C10.5417 14.526 11.1857 15.1875 11.9792 15.1875C12.7727 15.1875 13.4167 15.849 13.4167 16.6646C13.4167 17.4791 12.7727 18.1406 11.9792 18.1406M11.9792 12.2344C12.605 12.2344 13.1379 12.645 13.3353 13.2188M11.9792 12.2344V11.25M11.9792 18.1406C11.3535 18.1406 10.8206 17.73 10.6232 17.1562M11.9792 18.1406V19.125" stroke="white" stroke-width="1.5" stroke-linecap="round"/>
</g>
</g>
<defs>
<filter id="filter0_d_192_244" x="-2.83325" y="1.5" width="28.666" height="32" filterUnits="userSpaceOnUse" color-interpolation-filters="sRGB">
<feFlood flood-opacity="0" result="BackgroundImageFix"/>
<feColorMatrix in="SourceAlpha" type="matrix" values="0 0 0 0 0 0 0 0 0 0 0 0 0 0 0 0 0 0 127 0" result="hardAlpha"/>
<feOffset dy="4"/>
<feGaussianBlur stdDeviation="2"/>
<feComposite in2="hardAlpha" operator="out"/>
<feColorMatrix type="matrix" values="0 0 0 0 0 0 0 0 0 0 0 0 0 0 0 0 0 0 0.05 0"/>
<feBlend mode="normal" in2="BackgroundImageFix" result="effect1_dropShadow_192_244"/>
<feBlend mode="normal" in="SourceGraphic" in2="effect1_dropShadow_192_244" result="shape"/>
</filter>
<clipPath id="clip0_192_244">
<rect width="23" height="27" fill="white"/>
</clipPath>
</defs>
</svg>